<svg height="512pt" viewBox="-60 0 512 512" width="512pt" xmlns="http://www.w3.org/2000/svg"><path d="m196.136719 512c-29.675781 0-40.148438-30.238281-42.230469-51.566406-33.257812-3.378906-48.070312-27.160156-51.328125-40.175782-.636719-2.546874-.058594-5.242187 1.554687-7.304687 1.609376-2.074219 4.089844-3.285156 6.71875-3.285156 6.984376 0 14.941407-2.429688 23.648438-7.222657 13.964844-7.683593 23.457031-20.390624 27.515625-36.769531v-109.847656c0-7.027344-1.585937-11.929687-4.699219-14.589844-4.261718-3.617187-10.828125-2.609375-10.898437-2.59375-1.816407.316407-44.085938 8.152344-44.085938 51.296875 0 2.625-1.210937 5.105469-3.285156 6.71875-2.0625 1.621094-4.765625 2.207032-7.316406 1.550782-13.011719-3.25-36.796875-18.0625-40.164063-51.328126-21.328125-2.078124-51.566406-12.542968-51.566406-42.21875 0-29.675781 30.238281-40.140624 51.566406-42.222656 3.378906-33.257812 27.152344-48.078125 40.164063-51.324218 2.542969-.660157 5.246093-.078126 7.316406 1.550781 2.074219 1.609375 3.285156 4.09375 3.285156 6.71875 0 43.449219 42.246094 50.988281 44.046875 51.285156 3.007813.488281 11.84375.726563 15.988282-3.742187 3.980468-4.289063 3.078124-12.65625 1.609374-18.921876-3.769531-16.195312-14.519531-30.214843-29.476562-38.453124-8.699219-4.792969-16.65625-7.222657-23.640625-7.222657-2.625 0-5.109375-1.210937-6.71875-3.285156-1.613281-2.0625-2.191406-4.765625-1.554687-7.304687 3.257812-13.015626 18.070312-36.796876 51.328124-40.175782 2.074219-21.328125 12.546876-51.566406 42.222657-51.566406s40.148437 30.238281 42.226562 51.566406c33.257813 3.378906 48.070313 27.160156 51.328125 40.175782.640625 2.546874.0625 5.242187-1.550781 7.304687-1.621094 2.074219-4.101563 3.285156-6.726563 3.285156-6.984374 0-14.941406 2.429688-23.648437 7.222657-14.957031 8.238281-25.710937 22.25-29.480469 38.453124-1.457031 6.257813-2.363281 14.632813 1.613282 18.921876 4.152343 4.476562 12.996093 4.210937 16.039062 3.734374 1.730469-.296874 44.003906-8.136718 44.003906-51.277343 0-2.625 1.210938-5.109375 3.28125-6.71875 2.0625-1.613281 4.777344-2.191407 7.316406-1.550781 13.015626 3.246093 36.796876 18.058593 40.167969 51.324218 21.324219 2.082032 51.566407 12.546875 51.566407 42.222656 0 29.675782-30.242188 40.140626-51.566407 42.21875-3.378906 33.257813-27.152343 48.078126-40.167969 51.328126-2.550781.640624-5.253906.070312-7.316406-1.550782-2.070312-1.613281-3.28125-4.09375-3.28125-6.71875 0-43.449218-42.246094-50.988281-44.046875-51.285156-.128906-.027344-6.703125-1.023438-10.957031 2.582031-3.105469 2.660157-4.691406 7.5625-4.691406 14.589844v109.855469c4.050781 16.371094 13.550781 29.070312 27.519531 36.769531 8.707031 4.792969 16.664063 7.222656 23.648437 7.222656 2.625 0 5.105469 1.210938 6.71875 3.285157 1.609376 2.0625 2.191407 4.765624 1.550782 7.308593-3.257813 13.011719-18.070313 36.796875-51.328125 40.171875-2.070313 21.320313-12.542969 51.558594-42.21875 51.558594zm-72.699219-86.863281c5.296875 8.078125 16.449219 18.640625 38.585938 18.640625 4.699218 0 8.511718 3.8125 8.53125 8.511718 0 .433594.425781 42.65625 25.582031 42.65625s25.582031-42.222656 25.582031-42.65625c.015625-4.699218 3.828125-8.511718 8.527344-8.511718 22.105468 0 33.265625-10.5625 38.570312-18.640625-6.207031-1.515625-12.644531-4.101563-19.28125-7.75-18.589844-10.234375-31.082031-27.101563-36.121094-48.769531-.144531-.632813-.222656-1.28125-.222656-1.929688v-110.859375c0-12.390625 3.675782-21.726563 10.914063-27.757813 10.292969-8.570312 23.289062-6.460937 24.738281-6.214843 18.039062 3.011719 50.785156 18.367187 57.085938 55.164062 8-5.421875 18.121093-16.578125 18.121093-38.246093 0-4.699219 3.8125-8.511719 8.519531-8.527344.417969 0 42.644532-.425782 42.644532-25.582032s-42.226563-25.582031-42.644532-25.582031c-4.707031-.019531-8.519531-3.832031-8.519531-8.527343 0-21.636719-10.132812-32.800782-18.121093-38.230469-6.3125 36.777343-39.058594 52.144531-57.222657 55.171875-2.035156.34375-20.113281 2.960937-31.199219-8.859375-7.371093-7.851563-9.332031-19.460938-5.824218-34.492188 4.867187-20.902343 18.664062-38.957031 37.859375-49.53125 6.636719-3.65625 13.089843-6.242187 19.300781-7.75-5.304688-8.085937-16.460938-18.640625-38.597656-18.640625-4.699219 0-8.511719-3.8125-8.527344-8.511718 0-.433594-.425781-42.65625-25.582031-42.65625s-25.582031 42.222656-25.582031 42.65625c-.019532 4.699218-3.832032 8.511718-8.53125 8.511718-22.101563 0-33.265626 10.5625-38.570313 18.640625 6.210937 1.515625 12.648437 4.101563 19.28125 7.75 19.1875 10.566407 32.988281 28.609375 37.863281 49.53125 3.503906 15.03125 1.542969 26.640625-5.824218 34.492188-11.085938 11.820312-29.164063 9.210937-31.203126 8.859375-18.164062-3.015625-50.917968-18.394532-57.21875-55.191406-8.007812 5.425781-18.128906 16.578124-18.128906 38.25 0 4.695312-3.8125 8.507812-8.519531 8.527343-.417969 0-42.648437.425781-42.648437 25.582031s42.230468 25.582032 42.648437 25.582032c4.707031.015625 8.519531 3.828125 8.519531 8.527344 0 21.636718 10.128906 32.796874 18.121094 38.230468 6.308594-36.78125 39.054688-52.148437 57.21875-55.175781 1.304688-.230469 14.300781-2.328125 24.59375 6.234375 7.25 6.039062 10.925781 15.375 10.925781 27.765625v110.859375c0 .648438-.078125 1.296875-.222656 1.9375-5.050781 21.675781-17.542969 38.535156-36.125 48.769531-6.640625 3.648438-13.089844 6.242188-19.296875 7.742188zm0 0"/><path d="m76.75 213.191406h-34.113281c-4.707031 0-8.527344-3.8125-8.527344-8.527344 0-4.714843 3.820313-8.527343 8.527344-8.527343h34.113281c4.707031 0 8.527344 3.8125 8.527344 8.527343 0 4.714844-3.820313 8.527344-8.527344 8.527344zm0 0"/><path d="m349.632812 213.191406h-34.109374c-4.707032 0-8.527344-3.8125-8.527344-8.527344 0-4.714843 3.820312-8.527343 8.527344-8.527343h34.109374c4.707032 0 8.527344 3.8125 8.527344 8.527343 0 4.714844-3.820312 8.527344-8.527344 8.527344zm0 0"/><path d="m196.136719 85.277344c-4.707031 0-8.527344-3.8125-8.527344-8.527344v-34.113281c0-4.714844 3.820313-8.527344 8.527344-8.527344s8.527343 3.8125 8.527343 8.527344v34.113281c0 4.714844-3.820312 8.527344-8.527343 8.527344zm0 0"/><path d="m196.136719 477.546875c-4.707031 0-8.527344-3.808594-8.527344-8.527344v-34.109375c0-4.714844 3.820313-8.527344 8.527344-8.527344s8.527343 3.8125 8.527343 8.527344v34.109375c0 4.71875-3.820312 8.527344-8.527343 8.527344zm0 0"/></svg>